<svg xmlns="http://www.w3.org/2000/svg" width="26" height="24" viewBox="0 0 26 24">
  <defs>
    <style>
      .cls-1 {
        fill: #ef5b70;
        fill-rule: evenodd;
      }
    </style>
  </defs>
  <path id="Forma_1_copy" data-name="Forma 1 copy" class="cls-1" d="M1107.96,1560.96h2.76l3.93,14.44a0.949,0.949,0,0,0,.92.72h12.07a0.97,0.97,0,0,0,.89-0.59l4.39-10.27a1.02,1.02,0,0,0-.08-0.93,0.947,0.947,0,0,0-.8-0.44H1118.7a0.98,0.98,0,0,0,0,1.96h11.86l-3.56,8.31h-10.7l-3.93-14.44a0.961,0.961,0,0,0-.93-0.72h-3.48A0.98,0.98,0,0,0,1107.96,1560.96Zm6.7,22.04a2.22,2.22,0,1,0-2.18-2.22A2.207,2.207,0,0,0,1114.66,1583Zm13.63,0h0.16a2.182,2.182,0,0,0,1.49-.77,2.261,2.261,0,0,0,.53-1.61A2.181,2.181,0,1,0,1128.29,1583Z" transform="translate(-1107 -1559)"/>
</svg>
